<svg width="62" height="26" viewBox="0 0 62 26" fill="none" xmlns="http://www.w3.org/2000/svg">
<g filter="url(#filter0_d_794_5217)">
<rect x="1" width="60" height="24" rx="2" fill="white" shape-rendering="crispEdges"/>
<rect x="1.5" y="0.5" width="59" height="23" rx="1.5" stroke="#E4E4E4" shape-rendering="crispEdges"/>
<path opacity="0.7" d="M15.4141 16.1221C13.3096 16.1221 12.0205 14.75 12.0205 12.4551V12.4502C12.0205 10.1943 13.3145 8.83203 15.3799 8.83203C17.0742 8.83203 18.2266 9.81836 18.4609 11.1416L18.4756 11.21H16.9961L16.9766 11.1611C16.7422 10.4775 16.1807 10.082 15.3848 10.082C14.2227 10.082 13.5244 10.9414 13.5244 12.4355V12.4404C13.5244 13.9688 14.2666 14.8721 15.4385 14.8721C16.4004 14.8721 17.0596 14.3008 17.0986 13.4316L17.1035 13.3291H15.4922V12.2305H18.5391V13.041C18.5391 14.96 17.377 16.1221 15.4141 16.1221ZM19.5156 16V8.9541H20.9902V14.7842H24.0713V16H19.5156ZM27.8311 16.1221C25.7363 16.1221 24.4326 14.7207 24.4326 12.4795V12.4697C24.4326 10.2285 25.7461 8.83203 27.8311 8.83203C29.9209 8.83203 31.2295 10.2334 31.2295 12.4697V12.4795C31.2295 14.7207 29.9258 16.1221 27.8311 16.1221ZM27.8311 14.8721C29.0029 14.8721 29.7256 13.9395 29.7256 12.4795V12.4697C29.7256 11 28.9883 10.082 27.8311 10.082C26.6787 10.082 25.9365 10.9951 25.9365 12.4697V12.4795C25.9365 13.9541 26.6738 14.8721 27.8311 14.8721ZM32.1816 16V8.9541H35.248C36.5762 8.9541 37.4111 9.6377 37.4111 10.7217V10.7314C37.4111 11.5029 36.8252 12.1621 36.0488 12.2646V12.2939C37.0303 12.3672 37.7383 13.0605 37.7383 13.9834V13.9932C37.7383 15.2285 36.8057 16 35.3018 16H32.1816ZM34.8672 10.0479H33.6562V11.8984H34.6865C35.5166 11.8984 35.9609 11.5518 35.9609 10.9414V10.9316C35.9609 10.3701 35.5557 10.0479 34.8672 10.0479ZM34.8623 12.8994H33.6562V14.9014H34.9258C35.7705 14.9014 36.2344 14.5547 36.2344 13.9004V13.8906C36.2344 13.2461 35.7656 12.8994 34.8623 12.8994ZM38.1289 16L40.5898 8.9541H42.3232L44.7793 16H43.2314L42.6992 14.291H40.209L39.6768 16H38.1289ZM41.4395 10.3213L40.5508 13.1875H42.3574L41.4688 10.3213H41.4395ZM45.502 16V8.9541H46.9766V14.7842H50.0576V16H45.502Z" fill="black"/>
</g>
<defs>
<filter id="filter0_d_794_5217" x="0" y="0" width="62" height="26" filterUnits="userSpaceOnUse" color-interpolation-filters="sRGB">
<feFlood flood-opacity="0" result="BackgroundImageFix"/>
<feColorMatrix in="SourceAlpha" type="matrix" values="0 0 0 0 0 0 0 0 0 0 0 0 0 0 0 0 0 0 127 0" result="hardAlpha"/>
<feOffset dy="1"/>
<feGaussianBlur stdDeviation="0.5"/>
<feComposite in2="hardAlpha" operator="out"/>
<feColorMatrix type="matrix" values="0 0 0 0 0 0 0 0 0 0 0 0 0 0 0 0 0 0 0.15 0"/>
<feBlend mode="normal" in2="BackgroundImageFix" result="effect1_dropShadow_794_5217"/>
<feBlend mode="normal" in="SourceGraphic" in2="effect1_dropShadow_794_5217" result="shape"/>
</filter>
</defs>
</svg>
