<svg width="16" height="16" viewBox="0 0 16 16" fill="none" xmlns="http://www.w3.org/2000/svg">
<g id="ic_hamburger">
<path id="Vector" fill-rule="evenodd" clip-rule="evenodd" d="M2.74531 4.1332H13.412C13.6242 4.1332 13.8276 4.04892 13.9777 3.89889C14.1277 3.74886 14.212 3.54538 14.212 3.3332C14.212 3.12103 14.1277 2.91755 13.9777 2.76752C13.8276 2.61749 13.6242 2.5332 13.412 2.5332H2.74531C2.53314 2.5332 2.32966 2.61749 2.17963 2.76752C2.0296 2.91755 1.94531 3.12103 1.94531 3.3332C1.94531 3.54538 2.0296 3.74886 2.17963 3.89889C2.32966 4.04892 2.53314 4.1332 2.74531 4.1332M13.412 7.19987H2.74531C2.53314 7.19987 2.32966 7.28416 2.17963 7.43418C2.0296 7.58421 1.94531 7.7877 1.94531 7.99987C1.94531 8.21204 2.0296 8.41553 2.17963 8.56556C2.32966 8.71558 2.53314 8.79987 2.74531 8.79987H13.412C13.6242 8.79987 13.8276 8.71558 13.9777 8.56556C14.1277 8.41553 14.212 8.21204 14.212 7.99987C14.212 7.7877 14.1277 7.58421 13.9777 7.43418C13.8276 7.28416 13.6242 7.19987 13.412 7.19987ZM13.412 11.8665H2.74531C2.64025 11.8665 2.53623 11.8872 2.43917 11.9274C2.34211 11.9676 2.25391 12.0266 2.17963 12.1009C2.10534 12.1751 2.04641 12.2633 2.00621 12.3604C1.96601 12.4574 1.94531 12.5615 1.94531 12.6665C1.94531 12.7716 1.96601 12.8756 2.00621 12.9727C2.04641 13.0697 2.10534 13.1579 2.17963 13.2322C2.25391 13.3065 2.34211 13.3654 2.43917 13.4056C2.53623 13.4458 2.64025 13.4665 2.74531 13.4665H13.412C13.517 13.4665 13.6211 13.4458 13.7181 13.4056C13.8152 13.3654 13.9034 13.3065 13.9777 13.2322C14.052 13.1579 14.1109 13.0697 14.1511 12.9727C14.1913 12.8756 14.212 12.7716 14.212 12.6665C14.212 12.5615 14.1913 12.4574 14.1511 12.3604C14.1109 12.2633 14.052 12.1751 13.9777 12.1009C13.9034 12.0266 13.8152 11.9676 13.7181 11.9274C13.6211 11.8872 13.517 11.8665 13.412 11.8665" fill="black"/>
</g>
</svg>
