<svg width="74" height="27" viewBox="0 0 74 27" fill="none" xmlns="http://www.w3.org/2000/svg">
<g clip-path="url(#clip0_296_5519)">
<path d="M43.3292 10.6981C43.1598 10.4682 42.9812 10.2135 42.7903 9.96813C41.7739 8.66404 40.5128 7.85999 38.7881 8.10691C38.434 8.15784 38.0659 8.31063 37.7703 8.5128C37.2667 8.8585 37.1158 9.48662 37.4361 10.0021C37.6794 10.3941 38.0013 10.7892 38.3831 11.033C39.4826 11.7352 40.6344 12.3572 41.7601 13.0192C42.7333 13.5918 43.6341 14.2508 44.2762 15.2061C45.2417 16.6398 45.3249 18.1492 44.652 19.7156C43.8928 21.4827 42.4961 22.5074 40.7006 23.0368C37.7965 23.8918 35.1032 23.4782 32.6748 21.6216C32.2206 21.2743 31.8048 20.8731 31.3475 20.4749C30.7423 21.1786 29.9139 21.833 28.9499 22.2975C26.7494 23.3593 24.4412 23.81 22.0482 23.1757C19.0547 22.3824 17.2007 20.3931 16.5493 17.3775C15.7763 13.8017 17.1653 8.77208 21.0226 6.20403C23.2139 4.74561 25.6546 4.13292 28.2508 4.73481C31.7663 5.54967 33.1907 9.27673 31.1658 12.2707C29.7291 14.3959 27.6272 15.5317 25.1572 16.0364C24.7091 16.129 24.2471 16.166 23.7898 16.2031C23.6635 16.2139 23.4664 16.1768 23.4094 16.0919C22.8736 15.2925 22.3623 14.4792 21.8465 13.6674C21.8188 13.6242 21.8234 13.5594 21.8249 13.5686C22.8166 13.351 23.8083 13.1967 24.7599 12.9097C25.7408 12.6133 26.6678 12.155 27.2714 11.263C27.7118 10.6132 28.0583 9.9172 27.9012 9.09308C27.7596 8.35384 27.2791 7.91092 26.5169 7.83529C25.0571 7.68868 23.8745 8.32298 22.8659 9.27365C20.9087 11.121 20.3081 13.4668 20.5499 16.0734C20.7409 18.1291 22.3901 19.6662 24.4535 19.748C27.179 19.8545 29.4812 18.2232 30.2619 15.612C30.3466 15.3295 30.4559 15.2802 30.7161 15.3527C31.8356 15.6629 32.9566 15.9716 34.0823 16.2602C34.4072 16.3435 34.3687 16.575 34.3718 16.7972C34.3903 17.842 34.7429 18.7233 35.6791 19.265C36.5969 19.7959 37.607 20.0382 38.6603 19.907C39.0853 19.8545 39.5288 19.6801 39.8907 19.4471C40.8392 18.8328 40.9963 17.4886 40.1525 16.737C39.5057 16.1614 38.7204 15.7432 37.9951 15.257C37.008 14.5949 35.9732 13.9946 35.0447 13.2584C34.1115 12.5177 33.5156 11.4945 33.3247 10.3015C32.9551 7.99425 34.1962 5.85216 36.4537 4.99563C39.2008 3.95236 43.494 4.21163 45.8669 7.72109C45.9963 7.91246 46.0625 8.06216 45.8715 8.24581C45.0431 9.04061 44.2177 9.84004 43.3261 10.7012L43.3292 10.6981Z" fill="black"/>
<path d="M65.5506 19.0797C64.5358 19.0797 63.5349 19.0705 62.5324 19.0921C62.4246 19.0951 62.2891 19.2587 62.2229 19.3791C61.9427 19.8791 61.7286 20.4224 61.4099 20.8946C59.9916 22.9997 57.9544 23.7096 55.526 23.3145C54.5005 23.1479 53.5103 22.7574 52.4986 22.4919C50.7678 22.0382 49.0863 22.066 47.5141 23.0522C47.4679 23.0815 47.4078 23.0923 47.3123 23.1278C47.2415 22.9873 47.1645 22.8546 47.106 22.7142C46.6933 21.7203 46.2899 20.7218 45.8679 19.731C45.7555 19.4655 45.8264 19.3729 46.0866 19.2649C49.1217 18.0118 51.8011 16.2617 53.866 13.6581C54.5621 12.78 55.0225 11.8139 55.0687 10.6749C55.1503 8.69023 53.8091 7.63925 51.8811 8.15934C50.9249 8.41707 50.2443 9.02204 49.6837 9.79832C49.4928 10.0638 49.3065 10.3323 49.0924 10.6332C48.4057 9.76128 47.7435 8.93562 47.1091 8.08835C47.0398 7.99575 47.0675 7.74419 47.1445 7.63616C48.381 5.92773 50.0164 4.84279 52.1291 4.55882C53.7228 4.34431 55.2442 4.54956 56.6532 5.39684C58.1638 6.30584 58.8937 7.68555 59.0169 9.38009C59.2017 11.9126 58.2531 14.0841 56.6532 15.9823C55.6199 17.2077 54.3804 18.2124 52.9945 19.0288C52.9744 19.0411 52.9698 19.0782 52.9544 19.1121C52.9744 19.1445 52.9898 19.2016 53.0206 19.2109C54.1016 19.5782 55.1457 20.1091 56.3344 20.0366C57.3384 19.9748 58.0483 19.4362 58.5534 18.6013C59.2032 17.5287 59.4789 16.3188 59.7992 15.1273C60.6415 11.996 61.4715 8.86154 62.3184 5.73173C62.3476 5.62216 62.4924 5.4632 62.5863 5.46165C63.7458 5.44313 64.9069 5.44931 66.1681 5.44931C65.2334 8.96957 64.3264 12.3833 63.4024 15.8589C64.4141 15.8589 65.3596 15.8666 66.3036 15.8465C66.3867 15.845 66.5099 15.6783 66.5407 15.5672C67.4323 12.3 68.3116 9.0313 69.2062 5.76568C69.2401 5.64068 69.4172 5.46783 69.5281 5.46628C70.6337 5.45548 71.7408 5.47554 72.8465 5.48943C72.8988 5.48943 72.9527 5.52339 73.0605 5.56042C72.1628 8.97729 71.2666 12.3849 70.355 15.8589H73.9952C73.9629 16.0811 73.9506 16.2493 73.9121 16.4098C73.7211 17.1907 73.5086 17.9655 73.3331 18.7494C73.2622 19.0689 73.1052 19.1569 72.7941 19.1507C71.8317 19.1291 70.8677 19.143 69.9053 19.1198C69.6004 19.1121 69.4526 19.1847 69.3694 19.5103C68.8767 21.444 68.3501 23.3685 67.8542 25.3007C67.7772 25.6001 67.651 25.6958 67.3553 25.6912C66.3498 25.6789 65.3427 25.6912 64.3356 25.6866C63.8475 25.685 63.8228 25.6356 63.9553 25.1541C64.4942 23.1895 65.0301 21.2234 65.566 19.2572C65.5737 19.2325 65.5613 19.2016 65.5475 19.0766L65.5506 19.0797Z" fill="black"/>
<path d="M9.85816 18.3114C9.58099 18.5321 9.30535 18.7559 9.02509 18.9719C7.62689 20.0522 6.0824 20.6819 4.27613 20.5415C2.25428 20.384 0.663598 18.955 0.189318 16.8684C-0.204889 15.1322 0.0753673 13.4469 0.492672 11.7586C0.983891 9.76615 1.44277 7.76758 1.92937 5.77364C1.95863 5.65172 2.108 5.46652 2.20193 5.46498C3.53392 5.44492 4.8659 5.45109 6.26411 5.45109C5.96229 6.72431 5.67741 7.89105 5.41256 9.06241C5.03221 10.7415 4.638 12.4175 4.30847 14.1075C4.213 14.6013 4.26381 15.143 4.34543 15.6461C4.48864 16.5289 5.1323 17.0351 6.03312 17.0737C7.82399 17.1477 9.14366 16.3452 10.1246 14.893C11.0177 13.5704 11.4535 12.0734 11.8277 10.5486C12.2172 8.96055 12.6161 7.37404 13.0257 5.79062C13.0565 5.67178 13.1997 5.49585 13.2936 5.4943C14.6687 5.47578 16.0454 5.48041 17.4944 5.48041C17.3496 6.09002 17.228 6.61628 17.1002 7.141C16.2086 10.794 15.374 14.4609 14.4054 18.0938C13.5569 21.2776 11.8015 23.8781 8.88804 25.5448C6.59056 26.8582 4.08673 27.2178 1.47511 26.8798C1.17637 26.8412 0.87302 26.8103 0.586604 26.727C0.481893 26.6961 0.330986 26.5017 0.351004 26.4183C0.648199 25.1914 0.970032 23.9722 1.29032 22.7515C1.30264 22.7021 1.355 22.6635 1.40582 22.5987C3.38763 23.5046 5.33864 23.4567 7.2219 22.3579C8.74792 21.4674 9.44394 19.989 9.85816 18.3099V18.3114Z" fill="black"/>
<path d="M13.836 2.66389C13.5557 2.88458 13.2355 3.02502 13.1092 3.26732C12.9798 3.51733 13.0384 3.86458 13.0106 4.22108C12.8782 4.14854 12.8028 4.11768 12.7381 4.06983C12.4501 3.8584 12.2761 3.93248 12.1668 4.26583C12.116 4.42171 12.0143 4.5606 11.9358 4.70722C11.9004 4.69487 11.865 4.68252 11.828 4.66863C11.7818 4.44023 11.8003 4.147 11.6648 4.00502C11.5724 3.90779 11.2598 4.02045 10.9949 4.04205C11.0719 3.59913 11.5555 3.02656 10.5977 2.75494C11.2213 2.28424 11.5524 1.78267 10.9718 0.998671C11.9296 1.2672 12.0451 0.662232 12.1329 0.0464559C12.3762 0.264061 12.5364 0.407588 12.6965 0.551114C12.8212 0.365919 12.9475 0.182266 13.0722 -0.00292969C13.1292 0.041826 13.1862 0.0850383 13.2432 0.129794C13.2231 0.375178 13.1138 0.666862 13.2108 0.852057C13.2893 1.0033 13.6112 1.02954 13.9038 1.14065C13.5496 1.61136 13.1261 2.13608 13.836 2.66235V2.66389Z" fill="#FF3804"/>
<path d="M8.64476 4.0867C8.31215 4.24103 8.25363 3.59439 7.95028 3.96015C7.79475 4.14843 7.69312 4.38301 7.52527 4.66698C7.43596 4.34597 7.37283 4.11911 7.29275 3.83514C7.05715 3.93854 6.87083 4.02034 6.61829 4.13145C6.69836 3.61754 7.22192 3.02182 6.21484 2.77181C6.78306 2.28876 7.22654 1.81805 6.59981 1.01399C7.54221 1.23314 7.67618 0.694529 7.71776 0.0941856C7.94412 0.276295 8.11966 0.524766 8.28443 0.518593C8.46305 0.510876 8.6309 0.263948 8.87112 0.0664062C8.84956 0.390499 8.74793 0.679096 8.84494 0.865835C8.92194 1.01245 9.24223 1.03405 9.50555 1.1282C9.42239 1.26709 9.34078 1.44457 9.22375 1.59273C9.01433 1.85663 8.98661 2.1051 9.21913 2.36283C9.44703 2.61593 9.45473 2.81348 9.0867 2.92459C8.72483 3.03417 8.59702 3.28264 8.64322 3.6484C8.66324 3.80119 8.6463 3.9586 8.6463 4.08515L8.64476 4.0867Z" fill="#FF3804"/>
</g>
<defs>
<clipPath id="clip0_296_5519">
<rect width="74" height="27" fill="white"/>
</clipPath>
</defs>
</svg>
