<svg width="34" height="34" viewBox="0 0 34 34" fill="none" xmlns="http://www.w3.org/2000/svg">
<path d="M23.5652 22.4339L20.4939 19.3626C21.2172 18.4039 21.6512 17.2159 21.6512 15.9252C21.6512 12.7679 19.0819 10.1992 15.9252 10.1992C12.7679 10.1999 10.1992 12.7686 10.1992 15.9259C10.1992 19.0826 12.7679 21.6519 15.9252 21.6519C17.2152 21.6519 18.4039 21.2179 19.3626 20.4946L22.4339 23.5659C22.5899 23.7219 22.7946 23.7999 22.9992 23.7999C23.2039 23.7999 23.4086 23.7219 23.5652 23.5652C23.8772 23.2532 23.8772 22.7466 23.5652 22.4339ZM11.7992 15.9259C11.7992 13.6506 13.6499 11.7999 15.9252 11.7999C18.1999 11.7999 20.0506 13.6506 20.0506 15.9252C20.0506 18.1999 18.1999 20.0506 15.9252 20.0506C13.6499 20.0512 11.7992 18.2006 11.7992 15.9259V15.9259Z" fill="black"/>
</svg>
