<svg width="62" height="26" viewBox="0 0 62 26" fill="none" xmlns="http://www.w3.org/2000/svg">
<g filter="url(#filter0_d_794_5215)">
<rect x="1" width="60" height="24" rx="2" fill="white" shape-rendering="crispEdges"/>
<rect x="1.5" y="0.5" width="59" height="23" rx="1.5" stroke="#E4E4E4" shape-rendering="crispEdges"/>
<path opacity="0.7" d="M18.0459 16V13.3682L15.5947 8.9541H17.1865L18.7686 11.9619H18.8027L20.3799 8.9541H21.9766L19.5205 13.3682V16H18.0459ZM22.6943 16V8.9541H27.3623V10.1699H24.1689V11.8594H27.1816V13.0117H24.1689V14.7842H27.3623V16H22.6943ZM31 16.1221C29.3252 16.1221 28.2461 15.3555 28.1631 14.0566L28.1582 13.9785H29.5498L29.5596 14.0322C29.6523 14.5791 30.2334 14.9209 31.0391 14.9209C31.8545 14.9209 32.3672 14.5645 32.3672 14.0273V14.0225C32.3672 13.5439 32.0205 13.3047 31.1465 13.124L30.4043 12.9775C29.0127 12.6992 28.3096 12.0352 28.3096 10.9756V10.9707C28.3096 9.68164 29.4326 8.83203 30.9951 8.83203C32.626 8.83203 33.627 9.64746 33.6953 10.8828L33.7002 10.9756H32.3086L32.3037 10.917C32.2305 10.3652 31.7227 10.0283 30.9951 10.0283C30.2383 10.0332 29.7842 10.3799 29.7842 10.8828V10.8877C29.7842 11.332 30.1455 11.5908 30.9561 11.752L31.7031 11.9033C33.1777 12.1963 33.8418 12.7969 33.8418 13.9053V13.9102C33.8418 15.2627 32.7773 16.1221 31 16.1221ZM34.6572 16V14.9893L37.1475 12.6602C38.0557 11.8105 38.2461 11.4639 38.2461 10.9756V10.9658C38.2412 10.3896 37.8018 9.97949 37.1768 9.97949C36.4541 9.97949 35.9658 10.4531 35.9463 11.0879L35.9414 11.1318H34.5742V11.0928C34.5742 9.76465 35.6777 8.83203 37.167 8.83203C38.6562 8.83203 39.6816 9.68164 39.6816 10.8828V10.8926C39.6816 11.7471 39.2764 12.3037 38.0605 13.4219L36.5859 14.7695V14.8281H39.7793V16H34.6572ZM43.9248 16V14.7061H40.4189V13.4756L43.2461 8.9541H45.3262V13.5293H46.2539V14.7061H45.3262V16H43.9248ZM41.7031 13.5684H43.9541V10.0186H43.9199L41.7031 13.5293V13.5684Z" fill="black"/>
</g>
<defs>
<filter id="filter0_d_794_5215" x="0" y="0" width="62" height="26" filterUnits="userSpaceOnUse" color-interpolation-filters="sRGB">
<feFlood flood-opacity="0" result="BackgroundImageFix"/>
<feColorMatrix in="SourceAlpha" type="matrix" values="0 0 0 0 0 0 0 0 0 0 0 0 0 0 0 0 0 0 127 0" result="hardAlpha"/>
<feOffset dy="1"/>
<feGaussianBlur stdDeviation="0.5"/>
<feComposite in2="hardAlpha" operator="out"/>
<feColorMatrix type="matrix" values="0 0 0 0 0 0 0 0 0 0 0 0 0 0 0 0 0 0 0.15 0"/>
<feBlend mode="normal" in2="BackgroundImageFix" result="effect1_dropShadow_794_5215"/>
<feBlend mode="normal" in="SourceGraphic" in2="effect1_dropShadow_794_5215" result="shape"/>
</filter>
</defs>
</svg>
